<mxfile host="drawio-plugin" modified="2023-08-27T20:11:07.364Z" agent="5.0 (Windows NT 10.0; Win64; x64) AppleWebKit/537.36 (KHTML, like Gecko) Chrome/111.0.0.0 Safari/537.36" etag="oX8Gar61wu1I3JHtaWGO" version="20.5.3" type="embed"><diagram id="23iRSUPoRavnBvh4doch" name="Desenho Macro"><mxGraphModel dx="934" dy="534" grid="1" gridSize="10" guides="1" tooltips="1" connect="1" arrows="1" fold="1" page="1" pageScale="1" pageWidth="827" pageHeight="1169" math="0" shadow="0"><root><mxCell id="0"/><mxCell id="1" parent="0"/><mxCell id="2" value="&lt;font color=&quot;#ffffff&quot;&gt;API &lt;br&gt;Gateway&lt;br&gt;&lt;/font&gt;" style="sketch=0;outlineConnect=0;fontColor=#232F3E;gradientColor=none;fillColor=#B0084D;strokeColor=none;dashed=0;verticalLabelPosition=bottom;verticalAlign=top;align=center;html=1;fontSize=12;fontStyle=0;aspect=fixed;pointerEvents=1;shape=mxgraph.aws4.endpoint;" parent="1" vertex="1"><mxGeometry x="110" y="190" width="58" height="58" as="geometry"/></mxCell><mxCell id="3" value="Cell Phone" style="verticalLabelPosition=bottom;html=1;verticalAlign=top;align=center;strokeColor=none;fillColor=#00BEF2;shape=mxgraph.azure.mobile;pointerEvents=1;fontColor=#FFFFFF;" parent="1" vertex="1"><mxGeometry x="200" y="80" width="35" height="50" as="geometry"/></mxCell><mxCell id="7" value="Web Site&amp;nbsp;&lt;br&gt;Angular" style="sketch=0;aspect=fixed;pointerEvents=1;shadow=0;dashed=0;html=1;strokeColor=none;labelPosition=center;verticalLabelPosition=bottom;verticalAlign=top;align=center;shape=mxgraph.mscae.enterprise.website_generic;fillColor=#7D7D7D;fontColor=#FFFFFF;" parent="1" vertex="1"><mxGeometry x="30" y="74.2" width="70" height="61.6" as="geometry"/></mxCell><mxCell id="10" value="" style="endArrow=classic;startArrow=classic;html=1;rounded=0;entryX=0.5;entryY=1;entryDx=0;entryDy=0;entryPerimeter=0;" parent="1" source="2" target="3" edge="1"><mxGeometry width="50" height="50" relative="1" as="geometry"><mxPoint x="350" y="300" as="sourcePoint"/><mxPoint x="400" y="250" as="targetPoint"/></mxGeometry></mxCell><mxCell id="11" value="" style="endArrow=classic;startArrow=classic;html=1;rounded=0;" parent="1" source="2" target="7" edge="1"><mxGeometry width="50" height="50" relative="1" as="geometry"><mxPoint x="350" y="300" as="sourcePoint"/><mxPoint x="400" y="250" as="targetPoint"/></mxGeometry></mxCell><mxCell id="12" value="Web&amp;nbsp; Service&lt;br&gt;Api" style="sketch=0;aspect=fixed;html=1;points=[];align=center;image;fontSize=12;image=img/lib/mscae/API_Management.svg;" parent="1" vertex="1"><mxGeometry x="30" y="310" width="50" height="42" as="geometry"/></mxCell><mxCell id="13" value="" style="endArrow=classic;startArrow=classic;html=1;rounded=0;" parent="1" source="12" target="2" edge="1"><mxGeometry width="50" height="50" relative="1" as="geometry"><mxPoint x="350" y="300" as="sourcePoint"/><mxPoint x="400" y="250" as="targetPoint"/></mxGeometry></mxCell><mxCell id="14" value="Web Site Empresarial&lt;br&gt;Angular" style="sketch=0;pointerEvents=1;shadow=0;dashed=0;html=1;strokeColor=none;labelPosition=center;verticalLabelPosition=bottom;verticalAlign=top;align=center;fillColor=#505050;shape=mxgraph.mscae.intune.company_portal" parent="1" vertex="1"><mxGeometry x="187.5" y="305.5" width="60" height="51" as="geometry"/></mxCell><mxCell id="15" value="" style="endArrow=classic;startArrow=classic;html=1;rounded=0;exitX=0.5;exitY=0;exitDx=0;exitDy=0;exitPerimeter=0;" parent="1" source="14" target="2" edge="1"><mxGeometry width="50" height="50" relative="1" as="geometry"><mxPoint x="350" y="300" as="sourcePoint"/><mxPoint x="400" y="250" as="targetPoint"/></mxGeometry></mxCell><mxCell id="20" value="" style="edgeStyle=orthogonalEdgeStyle;rounded=0;orthogonalLoop=1;jettySize=auto;html=1;" parent="1" source="18" target="19" edge="1"><mxGeometry relative="1" as="geometry"/></mxCell><mxCell id="29" value="" style="edgeStyle=orthogonalEdgeStyle;rounded=0;orthogonalLoop=1;jettySize=auto;html=1;" parent="1" source="18" target="28" edge="1"><mxGeometry relative="1" as="geometry"/></mxCell><mxCell id="64" style="edgeStyle=orthogonalEdgeStyle;rounded=0;orthogonalLoop=1;jettySize=auto;html=1;entryX=0;entryY=0.5;entryDx=0;entryDy=0;entryPerimeter=0;fontColor=#FFFFFF;" edge="1" parent="1" source="18" target="62"><mxGeometry relative="1" as="geometry"/></mxCell><mxCell id="68" style="edgeStyle=orthogonalEdgeStyle;rounded=0;orthogonalLoop=1;jettySize=auto;html=1;entryX=0;entryY=0.5;entryDx=0;entryDy=0;entryPerimeter=0;fontColor=#FFFFFF;" edge="1" parent="1" source="18" target="63"><mxGeometry relative="1" as="geometry"/></mxCell><mxCell id="18" value="API Rest Spring Boot&lt;br&gt;service--collaborator" style="sketch=0;html=1;dashed=0;whitespace=wrap;fillColor=#2875E2;strokeColor=#ffffff;points=[[0.005,0.63,0],[0.1,0.2,0],[0.9,0.2,0],[0.5,0,0],[0.995,0.63,0],[0.72,0.99,0],[0.5,1,0],[0.28,0.99,0]];verticalLabelPosition=bottom;align=center;verticalAlign=top;shape=mxgraph.kubernetes.icon;prIcon=api" parent="1" vertex="1"><mxGeometry x="510" y="182.42" width="60" height="70" as="geometry"/></mxCell><mxCell id="26" style="edgeStyle=orthogonalEdgeStyle;rounded=0;orthogonalLoop=1;jettySize=auto;html=1;entryX=0.5;entryY=0;entryDx=0;entryDy=0;entryPerimeter=0;" parent="1" source="19" target="18" edge="1"><mxGeometry relative="1" as="geometry"/></mxCell><mxCell id="19" value="dbCollaborator" style="verticalLabelPosition=bottom;html=1;verticalAlign=top;align=center;strokeColor=none;fillColor=#00BEF2;shape=mxgraph.azure.mysql_database;" parent="1" vertex="1"><mxGeometry x="580" y="88.22" width="37.5" height="50" as="geometry"/></mxCell><mxCell id="47" style="edgeStyle=orthogonalEdgeStyle;rounded=0;orthogonalLoop=1;jettySize=auto;html=1;entryX=0.984;entryY=0.375;entryDx=0;entryDy=0;entryPerimeter=0;" parent="1" source="27" target="38" edge="1"><mxGeometry relative="1" as="geometry"/></mxCell><mxCell id="27" value="" style="rounded=0;whiteSpace=wrap;html=1;fillColor=none;" parent="1" vertex="1"><mxGeometry x="400" y="8.22" width="530" height="390" as="geometry"/></mxCell><mxCell id="28" value="Log" style="html=1;strokeColor=none;fillColor=#0079D6;labelPosition=center;verticalLabelPosition=middle;verticalAlign=top;align=center;fontSize=12;outlineConnect=0;spacingTop=-6;fontColor=#FFFFFF;sketch=0;shape=mxgraph.sitemap.log;" parent="1" vertex="1"><mxGeometry x="516.5" y="328.22" width="47" height="50" as="geometry"/></mxCell><mxCell id="31" value="K8S" style="sketch=0;aspect=fixed;html=1;points=[];align=center;image;fontSize=12;image=img/lib/mscae/Kubernetes.svg;" parent="1" vertex="1"><mxGeometry x="400" y="8.22" width="41.67" height="40" as="geometry"/></mxCell><mxCell id="32" value="SA" style="sketch=0;html=1;dashed=0;whitespace=wrap;fillColor=#2875E2;strokeColor=#ffffff;points=[[0.005,0.63,0],[0.1,0.2,0],[0.9,0.2,0],[0.5,0,0],[0.995,0.63,0],[0.72,0.99,0],[0.5,1,0],[0.28,0.99,0]];verticalLabelPosition=bottom;align=center;verticalAlign=top;shape=mxgraph.kubernetes.icon;prIcon=sa" parent="1" vertex="1"><mxGeometry x="441.67" y="8.22" width="40" height="40" as="geometry"/></mxCell><mxCell id="33" value="ROLE" style="sketch=0;html=1;dashed=0;whitespace=wrap;fillColor=#2875E2;strokeColor=#ffffff;points=[[0.005,0.63,0],[0.1,0.2,0],[0.9,0.2,0],[0.5,0,0],[0.995,0.63,0],[0.72,0.99,0],[0.5,1,0],[0.28,0.99,0]];verticalLabelPosition=bottom;align=center;verticalAlign=top;shape=mxgraph.kubernetes.icon;prIcon=role" parent="1" vertex="1"><mxGeometry x="484" y="8.22" width="40" height="40" as="geometry"/></mxCell><mxCell id="34" value="HPA" style="sketch=0;html=1;dashed=0;whitespace=wrap;fillColor=#2875E2;strokeColor=#ffffff;points=[[0.005,0.63,0],[0.1,0.2,0],[0.9,0.2,0],[0.5,0,0],[0.995,0.63,0],[0.72,0.99,0],[0.5,1,0],[0.28,0.99,0]];verticalLabelPosition=bottom;align=center;verticalAlign=top;shape=mxgraph.kubernetes.icon;prIcon=hpa" parent="1" vertex="1"><mxGeometry x="524" y="8.22" width="46" height="40" as="geometry"/></mxCell><mxCell id="35" value="Deploy" style="sketch=0;html=1;dashed=0;whitespace=wrap;fillColor=#2875E2;strokeColor=#ffffff;points=[[0.005,0.63,0],[0.1,0.2,0],[0.9,0.2,0],[0.5,0,0],[0.995,0.63,0],[0.72,0.99,0],[0.5,1,0],[0.28,0.99,0]];verticalLabelPosition=bottom;align=center;verticalAlign=top;shape=mxgraph.kubernetes.icon;prIcon=deploy" parent="1" vertex="1"><mxGeometry x="570" y="8.22" width="40" height="40" as="geometry"/></mxCell><mxCell id="36" value="SC" style="sketch=0;html=1;dashed=0;whitespace=wrap;fillColor=#2875E2;strokeColor=#ffffff;points=[[0.005,0.63,0],[0.1,0.2,0],[0.9,0.2,0],[0.5,0,0],[0.995,0.63,0],[0.72,0.99,0],[0.5,1,0],[0.28,0.99,0]];verticalLabelPosition=bottom;align=center;verticalAlign=top;shape=mxgraph.kubernetes.icon;prIcon=sc" parent="1" vertex="1"><mxGeometry x="610" y="10.32" width="40" height="37.9" as="geometry"/></mxCell><mxCell id="37" value="SVC" style="sketch=0;html=1;dashed=0;whitespace=wrap;fillColor=#2875E2;strokeColor=#ffffff;points=[[0.005,0.63,0],[0.1,0.2,0],[0.9,0.2,0],[0.5,0,0],[0.995,0.63,0],[0.72,0.99,0],[0.5,1,0],[0.28,0.99,0]];verticalLabelPosition=bottom;align=center;verticalAlign=top;shape=mxgraph.kubernetes.icon;prIcon=svc" parent="1" vertex="1"><mxGeometry x="650" y="10.320000000000002" width="40" height="39" as="geometry"/></mxCell><mxCell id="46" style="edgeStyle=orthogonalEdgeStyle;rounded=0;orthogonalLoop=1;jettySize=auto;html=1;entryX=-0.002;entryY=0.52;entryDx=0;entryDy=0;entryPerimeter=0;" parent="1" source="38" target="27" edge="1"><mxGeometry relative="1" as="geometry"/></mxCell><mxCell id="38" value="Istio&lt;br&gt;&lt;div style=&quot;color: rgb(166, 166, 166); font-family: Inter, system-ui, -apple-system, BlinkMacSystemFont, &amp;quot;Segoe UI&amp;quot;, Roboto, Oxygen, Ubuntu, Cantarell, &amp;quot;Fira Sans&amp;quot;, &amp;quot;Droid Sans&amp;quot;, Helvetica, Arial, sans-serif; font-size: 12px; font-weight: 400; text-align: start; background-color: rgb(33, 33, 33); position: absolute; left: 0px; top: 112px; height: 36px; width: 708px;&quot; class=&quot;environment-preview__virtualized-item&quot;&gt;&lt;div style=&quot;display: flex; padding: var(--spacing-s) var(--spacing-l); overflow-wrap: break-word; word-break: break-word; align-items: flex-start; background-color: var(--highlight-background-color-primary);&quot; data-index=&quot;2&quot; class=&quot;environment-preview-list-item is-hovered&quot;&gt;&lt;div style=&quot;box-sizing: border-box; flex: 0 0 38%; display: flex; justify-content: space-between; color: var(--content-color-primary); align-items: center;&quot; class=&quot;environment-preview-list-item__session-value&quot;&gt;&lt;div class=&quot;collection-browser-details-header__name&quot;&gt;http://cloud.dev.develop.corporation.com&lt;/div&gt;&lt;/div&gt;&lt;/div&gt;&lt;/div&gt;" style="sketch=0;html=1;verticalAlign=top;labelPosition=center;verticalLabelPosition=bottom;align=center;spacingTop=-6;fontSize=11;fontStyle=1;fontColor=#999999;shape=image;aspect=fixed;imageAspect=0;image=data:image/svg+xml,PHN2ZyB4bWxucz0iaHR0cDovL3d3dy53My5vcmcvMjAwMC9zdmciIHhtbG5zOnY9Imh0dHBzOi8vdmVjdGEuaW8vbmFubyIgd2lkdGg9IjE2MCIgaGVpZ2h0PSIyNDAiIHZpZXdCb3g9IjAgMCAxNjAgMjQwIj4mI3hhOwk8c3R5bGUgdHlwZT0idGV4dC9jc3MiPiYjeGE7CS5zdDB7ZmlsbDojNDY2YmIwO30mI3hhOwk8L3N0eWxlPiYjeGE7CTxwYXRoIGNsYXNzPSJzdDAiIGQ9Ik02MCAyNDBMMCAyMTBoMTYwem0wLTE2MEwwIDIwMGw2MC0xMHpNNzAgMHYxOTBsOTAgMTB6Ii8+JiN4YTs8L3N2Zz4=;" parent="1" vertex="1"><mxGeometry x="290" y="182.42" width="37" height="57.56" as="geometry"/></mxCell><mxCell id="41" value="" style="endArrow=classic;startArrow=classic;html=1;rounded=0;entryX=0.011;entryY=0.636;entryDx=0;entryDy=0;entryPerimeter=0;" parent="1" source="2" target="38" edge="1"><mxGeometry width="50" height="50" relative="1" as="geometry"><mxPoint x="350" y="280" as="sourcePoint"/><mxPoint x="400" y="230" as="targetPoint"/></mxGeometry></mxCell><mxCell id="49" value="ING" style="sketch=0;html=1;dashed=0;whitespace=wrap;fillColor=#2875E2;strokeColor=#ffffff;points=[[0.005,0.63,0],[0.1,0.2,0],[0.9,0.2,0],[0.5,0,0],[0.995,0.63,0],[0.72,0.99,0],[0.5,1,0],[0.28,0.99,0]];verticalLabelPosition=bottom;align=center;verticalAlign=top;shape=mxgraph.kubernetes.icon;prIcon=ing" parent="1" vertex="1"><mxGeometry x="690" y="7.73" width="40" height="44.18" as="geometry"/></mxCell><mxCell id="50" value="&lt;font color=&quot;#ffffff&quot;&gt;Prometheus&lt;/font&gt;" style="sketch=0;points=[[0,0,0],[0.25,0,0],[0.5,0,0],[0.75,0,0],[1,0,0],[0,1,0],[0.25,1,0],[0.5,1,0],[0.75,1,0],[1,1,0],[0,0.25,0],[0,0.5,0],[0,0.75,0],[1,0.25,0],[1,0.5,0],[1,0.75,0]];points=[[0,0,0],[0.25,0,0],[0.5,0,0],[0.75,0,0],[1,0,0],[0,1,0],[0.25,1,0],[0.5,1,0],[0.75,1,0],[1,1,0],[0,0.25,0],[0,0.5,0],[0,0.75,0],[1,0.25,0],[1,0.5,0],[1,0.75,0]];outlineConnect=0;fontColor=#232F3E;gradientColor=#F34482;gradientDirection=north;fillColor=#BC1356;strokeColor=#ffffff;dashed=0;verticalLabelPosition=bottom;verticalAlign=top;align=center;html=1;fontSize=12;fontStyle=0;aspect=fixed;shape=mxgraph.aws4.resourceIcon;resIcon=mxgraph.aws4.managed_service_for_prometheus;" parent="1" vertex="1"><mxGeometry x="260" y="460" width="42" height="42" as="geometry"/></mxCell><mxCell id="51" value="Grafana" style="aspect=fixed;html=1;points=[];align=center;image;fontSize=12;image=img/lib/azure2/other/Grafana.svg;fontColor=#FFFFFF;" parent="1" vertex="1"><mxGeometry x="320" y="462.39" width="51" height="39.61" as="geometry"/></mxCell><mxCell id="52" value="" style="rounded=0;whiteSpace=wrap;html=1;fillColor=none;" parent="1" vertex="1"><mxGeometry x="240" y="430" width="150" height="96.96" as="geometry"/></mxCell><mxCell id="53" value="Monitoração" style="text;html=1;strokeColor=none;fillColor=none;align=center;verticalAlign=middle;whiteSpace=wrap;rounded=0;fontColor=#FFFFFF;" parent="1" vertex="1"><mxGeometry x="290" y="436" width="60" height="30" as="geometry"/></mxCell><mxCell id="55" value="" style="endArrow=classic;startArrow=classic;html=1;rounded=0;fontColor=#FFFFFF;exitX=0.5;exitY=0;exitDx=0;exitDy=0;entryX=0.005;entryY=0.669;entryDx=0;entryDy=0;entryPerimeter=0;" parent="1" source="52" target="27" edge="1"><mxGeometry width="50" height="50" relative="1" as="geometry"><mxPoint x="350" y="330" as="sourcePoint"/><mxPoint x="400" y="280" as="targetPoint"/></mxGeometry></mxCell><mxCell id="56" value="Agent Elastic" style="aspect=fixed;html=1;points=[];align=center;image;fontSize=12;image=img/lib/azure2/databases/Elastic_Job_Agents.svg;fontColor=#FFFFFF;" parent="1" vertex="1"><mxGeometry x="453.16" y="463" width="46.5" height="46.5" as="geometry"/></mxCell><mxCell id="57" value="Elastic Dash" style="aspect=fixed;html=1;points=[];align=center;image;fontSize=12;image=img/lib/azure2/general/Dashboard.svg;fontColor=#FFFFFF;" parent="1" vertex="1"><mxGeometry x="539.16" y="463" width="70.84" height="50" as="geometry"/></mxCell><mxCell id="58" value="EKL" style="text;html=1;strokeColor=none;fillColor=none;align=center;verticalAlign=middle;whiteSpace=wrap;rounded=0;fontColor=#FFFFFF;" parent="1" vertex="1"><mxGeometry x="489.16" y="436" width="57" height="17" as="geometry"/></mxCell><mxCell id="61" value="" style="edgeStyle=orthogonalEdgeStyle;rounded=0;orthogonalLoop=1;jettySize=auto;html=1;fontColor=#FFFFFF;" parent="1" source="59" target="28" edge="1"><mxGeometry relative="1" as="geometry"/></mxCell><mxCell id="59" value="" style="rounded=0;whiteSpace=wrap;html=1;fillColor=none;" parent="1" vertex="1"><mxGeometry x="429.17" y="426.94" width="188.33" height="110.5" as="geometry"/></mxCell><mxCell id="62" value="&lt;font color=&quot;#ffffff&quot;&gt;Produce&lt;br&gt;&lt;/font&gt;&lt;div style=&quot;background-color:#1e1f22;color:#bcbec4&quot;&gt;&lt;pre style=&quot;font-family:'JetBrains Mono',monospace;font-size:9.8pt;&quot;&gt;service--notification.data-transfer.push&lt;/pre&gt;&lt;/div&gt;" style="sketch=0;points=[[0,0,0],[0.25,0,0],[0.5,0,0],[0.75,0,0],[1,0,0],[0,1,0],[0.25,1,0],[0.5,1,0],[0.75,1,0],[1,1,0],[0,0.25,0],[0,0.5,0],[0,0.75,0],[1,0.25,0],[1,0.5,0],[1,0.75,0]];outlineConnect=0;fontColor=#232F3E;gradientColor=#945DF2;gradientDirection=north;fillColor=#5A30B5;strokeColor=#ffffff;dashed=0;verticalLabelPosition=bottom;verticalAlign=top;align=center;html=1;fontSize=12;fontStyle=0;aspect=fixed;shape=mxgraph.aws4.resourceIcon;resIcon=mxgraph.aws4.managed_streaming_for_kafka;" vertex="1" parent="1"><mxGeometry x="750" y="206.20000000000002" width="40" height="40" as="geometry"/></mxCell><mxCell id="63" value="&lt;font color=&quot;#ffffff&quot;&gt;Produce&lt;br&gt;&lt;/font&gt;&lt;div style=&quot;background-color:#1e1f22;color:#bcbec4&quot;&gt;&lt;pre style=&quot;font-family:'JetBrains Mono',monospace;font-size:9.8pt;&quot;&gt;&lt;div&gt;&lt;pre style=&quot;font-family:'JetBrains Mono',monospace;font-size:9.8pt;&quot;&gt;service--documents.data-transfer.upload&lt;/pre&gt;&lt;/div&gt;&lt;/pre&gt;&lt;/div&gt;" style="sketch=0;points=[[0,0,0],[0.25,0,0],[0.5,0,0],[0.75,0,0],[1,0,0],[0,1,0],[0.25,1,0],[0.5,1,0],[0.75,1,0],[1,1,0],[0,0.25,0],[0,0.5,0],[0,0.75,0],[1,0.25,0],[1,0.5,0],[1,0.75,0]];outlineConnect=0;fontColor=#232F3E;gradientColor=#945DF2;gradientDirection=north;fillColor=#5A30B5;strokeColor=#ffffff;dashed=0;verticalLabelPosition=bottom;verticalAlign=top;align=center;html=1;fontSize=12;fontStyle=0;aspect=fixed;shape=mxgraph.aws4.resourceIcon;resIcon=mxgraph.aws4.managed_streaming_for_kafka;" vertex="1" parent="1"><mxGeometry x="750" y="300" width="40" height="40" as="geometry"/></mxCell><mxCell id="67" style="edgeStyle=orthogonalEdgeStyle;rounded=0;orthogonalLoop=1;jettySize=auto;html=1;entryX=0.005;entryY=0.63;entryDx=0;entryDy=0;entryPerimeter=0;fontColor=#FFFFFF;" edge="1" parent="1" source="66" target="18"><mxGeometry relative="1" as="geometry"><Array as="points"><mxPoint x="770" y="80"/><mxPoint x="490" y="80"/><mxPoint x="490" y="227"/></Array></mxGeometry></mxCell><mxCell id="66" value="&lt;font color=&quot;#ffffff&quot;&gt;Consumer&lt;br&gt;service--collaborator.data-transfer.save&lt;br&gt;&lt;/font&gt;&lt;span style=&quot;color: rgb(255, 255, 255);&quot;&gt;service--collaborator.data-transfer.save-retry&lt;br&gt;&lt;/span&gt;&lt;span style=&quot;color: rgb(255, 255, 255);&quot;&gt;service--collaborator.data-transfer.save-dlt&lt;/span&gt;&lt;font color=&quot;#ffffff&quot;&gt;&lt;br&gt;&lt;br&gt;&lt;/font&gt;" style="sketch=0;points=[[0,0,0],[0.25,0,0],[0.5,0,0],[0.75,0,0],[1,0,0],[0,1,0],[0.25,1,0],[0.5,1,0],[0.75,1,0],[1,1,0],[0,0.25,0],[0,0.5,0],[0,0.75,0],[1,0.25,0],[1,0.5,0],[1,0.75,0]];outlineConnect=0;fontColor=#232F3E;gradientColor=#945DF2;gradientDirection=north;fillColor=#5A30B5;strokeColor=#ffffff;dashed=0;verticalLabelPosition=bottom;verticalAlign=top;align=center;html=1;fontSize=12;fontStyle=0;aspect=fixed;shape=mxgraph.aws4.resourceIcon;resIcon=mxgraph.aws4.managed_streaming_for_kafka;" vertex="1" parent="1"><mxGeometry x="750" y="92.22000000000001" width="40" height="40" as="geometry"/></mxCell></root></mxGraphModel></diagram></mxfile>